<?xml version="1.0" encoding="UTF-8" standalone="no"?>
<!-- Created with Inkscape (http://www.inkscape.org/) -->

<svg
   width="160"
   height="50"
   viewBox="0 0 42.333335 13.229166"
   version="1.1"
   id="svg1"
   xmlns="http://www.w3.org/2000/svg"
   xmlns:svg="http://www.w3.org/2000/svg">
  <defs
     id="defs1" />
  <g
     id="layer1"
     transform="translate(135.1512,-27.074715)">
    <path
       style="-inkscape-font-specification:'Nova Slim';fill:#ffffff;stroke-width:0.161978"
       d="m -135.1512,38.082188 v -3.846981 c 0,-0.5568 0.20922,-1.041047 0.62766,-1.452741 0.39145,-0.381323 0.88244,-0.571985 1.47299,-0.571985 0.53655,0 1.00055,0.195723 1.392,0.58717 0.0742,0.07424 0.14173,0.161978 0.20247,0.263215 0.0607,-0.09786 0.12822,-0.183913 0.20247,-0.258153 0.42182,-0.394821 0.88582,-0.592232 1.392,-0.592232 0.5838,0 1.0748,0.190662 1.47299,0.571985 0.41845,0.404945 0.62767,0.889192 0.62767,1.452741 v 3.391417 l -0.96175,0.455564 h -0.0506 v -4.191184 c 0,-0.388073 -0.1063,-0.671535 -0.31889,-0.850386 -0.20922,-0.182225 -0.46569,-0.273338 -0.7694,-0.273338 -0.30371,0 -0.56186,0.09111 -0.77445,0.273338 -0.20923,0.178851 -0.31384,0.462313 -0.31384,0.850386 v 3.73562 l -0.96174,0.455564 h -0.0506 v -4.191184 c 0,-0.388073 -0.1063,-0.671535 -0.31889,-0.850386 -0.20923,-0.182225 -0.46569,-0.273338 -0.7694,-0.273338 -0.30371,0 -0.56186,0.09111 -0.77446,0.273338 -0.20922,0.178851 -0.31383,0.462313 -0.31383,0.850386 v 3.73562 l -0.96175,0.455564 z m 8.91385,-6.889133 c -0.11811,-0.121483 -0.17716,-0.266589 -0.17716,-0.435316 0,-0.172101 0.0591,-0.318894 0.17716,-0.440378 0.11811,-0.121483 0.26153,-0.182225 0.43026,-0.182225 0.16873,0 0.31214,0.06074 0.43025,0.182225 0.11811,0.121484 0.17717,0.268277 0.17717,0.440378 0,0.168727 -0.0591,0.313833 -0.17717,0.435316 -0.11811,0.121484 -0.26152,0.182226 -0.43025,0.182226 -0.16873,0 -0.31215,-0.06074 -0.43026,-0.182226 z m -0.0759,6.889133 v -5.51738 l 0.96174,-0.455564 h 0.0506 v 5.51738 l -0.96174,0.455564 z m 2.46004,0 v -3.846981 c 0,-0.5568 0.20922,-1.041047 0.62767,-1.452741 0.39145,-0.381323 0.88244,-0.571985 1.47299,-0.571985 0.58379,0 1.07479,0.190662 1.47298,0.571985 0.41845,0.404945 0.62767,0.889192 0.62767,1.452741 v 3.391417 l -0.96175,0.455564 h -0.0506 v -4.191184 c 0,-0.388073 -0.1063,-0.671535 -0.3189,-0.850386 -0.20922,-0.182225 -0.46568,-0.273338 -0.76939,-0.273338 -0.30371,0 -0.56187,0.09111 -0.77446,0.273338 -0.20923,0.178851 -0.31384,0.462313 -0.31384,0.850386 v 3.73562 l -0.96174,0.455564 z m 5.72491,-6.889133 c -0.11811,-0.121483 -0.17716,-0.266589 -0.17716,-0.435316 0,-0.172101 0.059,-0.318894 0.17716,-0.440378 0.11811,-0.121483 0.26153,-0.182225 0.43026,-0.182225 0.16873,0 0.31214,0.06074 0.43025,0.182225 0.11811,0.121484 0.17717,0.268277 0.17717,0.440378 0,0.168727 -0.0591,0.313833 -0.17717,0.435316 -0.11811,0.121484 -0.26152,0.182226 -0.43025,0.182226 -0.16873,0 -0.31215,-0.06074 -0.43026,-0.182226 z m -0.0759,6.889133 v -5.51738 l 0.96174,-0.455564 h 0.0506 v 5.51738 l -0.96174,0.455564 z m 3.7255,-1.78176 c 0,0.388073 0.10461,0.673222 0.31383,0.855447 0.21259,0.178851 0.47075,0.268276 0.77446,0.268276 0.30371,0 0.56017,-0.08942 0.76939,-0.268276 0.2126,-0.182225 0.3189,-0.467374 0.3189,-0.855447 v -2.409424 c 0,-0.388073 -0.1063,-0.671535 -0.3189,-0.850386 -0.20922,-0.182225 -0.46568,-0.273338 -0.76939,-0.273338 -0.30371,0 -0.56187,0.09111 -0.77446,0.273338 -0.20922,0.178851 -0.31383,0.462313 -0.31383,0.850386 z m 3.18894,-2.065221 v 1.721018 c 0,0.556799 -0.20922,1.041046 -0.62767,1.452741 -0.39145,0.381323 -0.88244,0.571985 -1.47298,0.571985 -0.44544,0 -0.8082,-0.143418 -1.08829,-0.430254 v 2.151272 l -0.96175,0.455563 h -0.0506 v -5.922325 c 0,-0.5568 0.20922,-1.041047 0.62767,-1.452741 0.39145,-0.381323 0.88244,-0.571985 1.47299,-0.571985 0.58379,0 1.07479,0.190662 1.47298,0.571985 0.41845,0.404945 0.62767,0.889192 0.62767,1.452741 z m 1.19459,1.721018 v -3.391417 l 0.96174,-0.455564 h 0.0506 v 4.191184 c 0,0.388073 0.10461,0.673222 0.31383,0.855447 0.2126,0.178851 0.47075,0.268276 0.77446,0.268276 0.30371,0 0.56018,-0.08942 0.7694,-0.268276 0.21259,-0.182225 0.31889,-0.467374 0.31889,-0.855447 v -3.73562 l 0.96175,-0.455564 h 0.0506 v 5.922325 c 0,0.5568 -0.20922,1.041047 -0.62767,1.452742 -0.39145,0.381323 -0.88244,0.571985 -1.47299,0.571985 h -1.55904 v -0.05062 l 0.24297,-0.506182 h 1.31607 c 0.30371,0 0.56187,-0.09111 0.77446,-0.273338 0.20922,-0.178851 0.31383,-0.462312 0.31383,-0.850385 v -0.825076 c -0.24971,0.286836 -0.61248,0.430254 -1.08829,0.430254 -0.57705,0 -1.06804,-0.190662 -1.47299,-0.571985 -0.41844,-0.398196 -0.62766,-0.882443 -0.62766,-1.452741 z"
       id="text2-7"
       aria-label="minipy" />
    <path
       id="path11-8-7-6"
       style="fill:#ffffff;fill-opacity:1;stroke:none;stroke-width:0.183048;stroke-linecap:butt;stroke-linejoin:miter;stroke-dasharray:none;stroke-opacity:1"
       d="m -98.360049,29.916212 -1.740631,0.857344 -0.48214,-0.698529 c -0.0584,0.07412 -0.11579,0.151161 -0.17146,0.235373 0,0 -0.31428,0.703072 -0.61754,1.177821 -0.30327,0.474749 -1.00976,0.864032 -0.98073,1.091137 0,0 0.37266,1.226225 1.50336,1.226225 0.956741,-0.04832 2.084831,-0.829505 2.084831,-0.829505 0.37688,-0.258206 1.15923,-0.797474 1.31133,-1.269882 -0.002,-5.63e-4 -0.005,-0.0014 -0.007,-0.0022 -0.0796,-0.02325 -0.0963,-0.06104 -0.0977,-0.114523 -0.001,-0.05348 0.0408,-0.09791 0.0943,-0.09934 0.002,-4.9e-5 0.003,-3.25e-4 0.005,-3.17e-4 0.0522,2.46e-4 0.11031,0.02793 0.11042,0.119269 -4e-5,0.03611 -0.0205,0.07623 -0.0544,0.09206 -10e-4,0.08279 -0.0208,0.205506 -0.0993,0.355276 -0.078,0.148703 -0.2374,0.336211 -0.45967,0.543829 0.30039,-0.128634 0.66651,-0.306434 1.07943,-0.54984 0,0 -0.3652,0.548632 -1.77764,1.214835 0.0951,0.272957 0.19214,0.624747 0.17431,1.005086 -1.29712,-0.0046 -2.333821,0.119716 -3.234811,1.213886 l 0.16767,0.239171 0.86873,-0.764967 1.031661,0.845956 1.43155,-1.078799 0.75389,0.661515 0.71941,-0.76465 1.14017,0.90385 0.1044,-0.210065 c -0.049,-0.05229 -0.10441,-0.109489 -0.17241,-0.173683 0.34621,-0.980219 0.28591,-1.764201 0.28472,-2.352794 -8.5e-4,-0.431027 -0.10325,-1.084276 -0.31383,-1.712158 l -0.23253,0.171785 -0.78394,-0.784897 -0.752,0.595395 z m -0.23189,0.486567 c 0.03,-2.58e-4 0.0585,0.0027 0.0861,0.01013 l 9.8e-4,3.16e-4 c 0.15904,0.04009 0.28046,0.148237 0.36951,0.272389 0.0892,0.124413 0.14896,0.267599 0.18666,0.39577 v 0.0025 l 0.001,0.0022 c 0,0 0.0217,0.09496 0.031,0.215444 0.009,0.119045 0.009,0.264847 -0.0465,0.391025 -0.001,0.0034 -0.066,0.205165 -0.24391,0.3132 -0.0678,0.04477 -0.1539,0.06645 -0.25974,0.08257 -0.1073,0.01634 -0.23201,0.02331 -0.35749,0.01677 -0.12547,-0.0065 -0.25197,-0.02549 -0.3635,-0.06454 -0.11097,-0.03885 -0.21,-0.0981 -0.26891,-0.195196 -0.10562,-0.166424 -0.12979,-0.321495 -0.11832,-0.50808 v -0.0013 l 10e-4,-0.0013 c 0.0324,-0.377276 0.25176,-0.625876 0.48055,-0.766232 0.1144,-0.07018 0.2319,-0.114898 0.33345,-0.139833 0.0632,-0.01551 0.11772,-0.02551 0.16767,-0.02594 z m -0.003,0.186021 c -0.0305,9.8e-4 -0.0742,0.0053 -0.12117,0.01677 -0.0835,0.0205 -0.18442,0.05911 -0.28093,0.11832 -0.12986,0.07967 -0.25104,0.193577 -0.3249,0.355276 0.0274,-0.04629 0.0617,-0.09074 0.10566,-0.127494 0,0 0.35803,-0.288693 0.56977,-0.230946 0.21559,0.05389 0.34277,0.296553 0.40052,0.492894 0,0 0.0653,0.288492 -0.008,0.450185 0,0 -0.0537,0.15026 -0.16926,0.219556 -0.01,0.0066 -0.022,0.01278 -0.0361,0.01867 0.0771,-0.0148 0.1366,-0.03671 0.15344,-0.04809 l 0.003,-0.0013 0.002,-0.0022 c 0.10274,-0.0616 0.16862,-0.221455 0.16862,-0.221455 l 0.001,-0.0035 10e-4,-0.0035 c 0.0324,-0.07134 0.0392,-0.199813 0.031,-0.30624 -0.008,-0.10303 -0.0239,-0.177837 -0.025,-0.182857 -10e-5,-3.67e-4 9e-5,-9.18e-4 0,-0.0013 -0.0332,-0.11267 -0.0867,-0.238438 -0.15914,-0.339458 -0.0727,-0.101312 -0.1615,-0.175856 -0.26669,-0.202156 h -0.001 -0.001 c -0.002,-5.33e-4 -0.008,-10e-4 -0.0171,-0.0013 -0.007,-1.83e-4 -0.0155,-3.36e-4 -0.0256,0 z m -3.436971,1.917162 c 0.0784,2.3e-4 0.14158,0.04266 0.15407,0.103451 0.0152,0.07406 -0.0492,0.149927 -0.14395,0.16957 -0.0949,0.01966 -0.1843,-0.02454 -0.19962,-0.09871 -0.0152,-0.07413 0.0494,-0.15004 0.14426,-0.169571 0.0149,-0.0031 0.0302,-0.0047 0.0452,-0.0048 z m 1.03514,0.141731 c 0.0246,-3.47e-4 0.0498,0.0033 0.074,0.01076 0.10243,0.03143 0.16551,0.121864 0.14078,0.20184 -0.0246,0.07988 -0.12744,0.119113 -0.22968,0.08763 -0.10224,-0.03141 -0.16526,-0.121625 -0.14078,-0.201524 0.0179,-0.05867 0.0794,-0.09766 0.15565,-0.09871 z" />
    <path
       style="fill:#ffffff;fill-opacity:1;stroke:none;stroke-width:0.27016;stroke-linecap:butt;stroke-linejoin:miter;stroke-dasharray:none;stroke-opacity:1"
       d="m -102.33159,34.870407 c 0,0 -0.54976,1.300745 -0.22397,2.640597 0.32577,1.339853 1.52709,2.557805 3.889011,2.621538 2.93881,-0.110085 3.96705,-1.66988 4.12485,-3.001041 0.1578,-1.331163 -0.44625,-2.562379 -0.44625,-2.562379 l -0.61084,1.228319 -1.14023,-0.903857 -0.71944,0.764801 -0.75392,-0.661568 -1.43152,1.078734 -1.031641,-0.845918 -0.86875,0.764802 z"
       id="path3-2-8-1" />
    <path
       id="rect1"
       style="fill:#ffffff;stroke-width:0.129349;stroke-linecap:round;stroke-linejoin:round"
       d="m -98.569799,30.5888 c -0.0276,-7.34e-4 -0.0842,0.0014 -0.14679,0.01677 -0.0835,0.0205 -0.18442,0.05911 -0.28093,0.11832 -0.11112,0.06817 -0.2159,0.161413 -0.2901,0.288207 l 0.006,0.0073 c 0.019,-0.02424 0.0401,-0.04723 0.0645,-0.0677 0,0 0.35803,-0.288694 0.56977,-0.230945 0.21559,0.05389 0.34277,0.296553 0.40052,0.492894 0,0 0.0653,0.288492 -0.008,0.450185 0,0 -0.0537,0.15026 -0.16926,0.219556 -0.01,0.0066 -0.022,0.01279 -0.0361,0.01867 0.0771,-0.0148 0.13659,-0.03671 0.15343,-0.04809 l 0.003,-0.0013 0.002,-0.0022 c 0.10274,-0.0616 0.16862,-0.221455 0.16862,-0.221455 l 0.001,-0.0035 10e-4,-0.0035 c 0.0324,-0.07134 0.0392,-0.199813 0.031,-0.30624 -0.008,-0.10303 -0.0239,-0.177837 -0.025,-0.182857 -9e-5,-3.67e-4 1e-4,-9.18e-4 0,-0.0013 -0.0332,-0.11267 -0.0867,-0.238438 -0.15913,-0.339458 -0.0727,-0.101312 -0.1615,-0.175856 -0.26669,-0.202156 h -10e-4 -0.001 c -0.002,-5.51e-4 -0.008,-0.001 -0.0171,-0.0013 z" />
    <path
       style="fill:#ffffff;fill-opacity:1;stroke:none;stroke-width:0.353808px;stroke-linecap:butt;stroke-linejoin:miter;stroke-opacity:1"
       d="m -99.117129,31.217011 c 0,0 0.0836,-0.03319 0.18071,-0.139619 0.0925,-0.0833 0.11099,-0.161966 0.11099,-0.161966 0.0741,-0.06479 0.29153,-0.02777 0.2684,0.15271 0,0 -0.0463,0.138827 -0.18047,0.203613 l -0.32879,0.09797 c -0.0977,0.03329 -0.17313,-0.09208 -0.051,-0.152705 z"
       id="path10-13-9-2" />
    <path
       style="fill:#ffffff;fill-opacity:1;stroke:none;stroke-width:0.246369;stroke-linecap:butt;stroke-linejoin:miter;stroke-dasharray:none;stroke-opacity:1"
       d="m -103.05747,30.054133 1.14001,-0.69219 0.25609,0.516584 0.97447,-0.323378 0.63956,0.926293 1.740511,-0.857194 0.88696,1.143409 0.75225,-0.595235 0.78387,0.78471 0.24184,-0.178469 0.65256,1.033227 c 0.10319,-2.041485 -0.66254,-3.821288 -3.11603,-4.491961 -2.442901,-0.515947 -4.169631,1.07535 -4.952091,2.734204 z"
       id="path4-8-6-9" />
  </g>
</svg>
