<?xml version="1.0" encoding="UTF-8" standalone="no"?>
<!-- Created with Inkscape (http://www.inkscape.org/) -->

<svg
   width="160"
   height="50"
   viewBox="0 0 42.33334 13.229166"
   version="1.1"
   id="svg1"
   xmlns="http://www.w3.org/2000/svg"
   xmlns:svg="http://www.w3.org/2000/svg">
  <defs
     id="defs1" />
  <g
     id="layer1"
     transform="translate(135.1512,-27.074715)">
    <path
       style="-inkscape-font-specification:'Nova Slim';fill:#242424;stroke-width:0.161978"
       d="m -135.1512,38.082188 v -3.846981 q 0,-0.8352 0.62766,-1.452741 0.58717,-0.571985 1.47299,-0.571985 0.80483,0 1.392,0.58717 0.11136,0.11136 0.20247,0.263215 0.0911,-0.146793 0.20247,-0.258153 0.63273,-0.592232 1.392,-0.592232 0.8757,0 1.47299,0.571985 0.62767,0.607418 0.62767,1.452741 v 3.391417 l -0.96175,0.455564 h -0.0506 v -4.191184 q 0,-0.582109 -0.31889,-0.850386 -0.31383,-0.273338 -0.7694,-0.273338 -0.45556,0 -0.77445,0.273338 -0.31384,0.268277 -0.31384,0.850386 v 3.73562 l -0.96174,0.455564 h -0.0506 v -4.191184 q 0,-0.582109 -0.31889,-0.850386 -0.31384,-0.273338 -0.7694,-0.273338 -0.45556,0 -0.77446,0.273338 -0.31383,0.268277 -0.31383,0.850386 v 3.73562 l -0.96175,0.455564 z m 8.91385,-6.889133 q -0.17716,-0.182225 -0.17716,-0.435316 0,-0.258152 0.17716,-0.440378 0.17717,-0.182225 0.43026,-0.182225 0.25309,0 0.43025,0.182225 0.17717,0.182226 0.17717,0.440378 0,0.253091 -0.17717,0.435316 -0.17716,0.182226 -0.43025,0.182226 -0.25309,0 -0.43026,-0.182226 z m -0.0759,6.889133 v -5.51738 l 0.96174,-0.455564 h 0.0506 v 5.51738 l -0.96174,0.455564 z m 2.46004,0 v -3.846981 q 0,-0.8352 0.62767,-1.452741 0.58717,-0.571985 1.47299,-0.571985 0.87569,0 1.47298,0.571985 0.62767,0.607418 0.62767,1.452741 v 3.391417 l -0.96175,0.455564 h -0.0506 v -4.191184 q 0,-0.582109 -0.3189,-0.850386 -0.31383,-0.273338 -0.76939,-0.273338 -0.45557,0 -0.77446,0.273338 -0.31384,0.268277 -0.31384,0.850386 v 3.73562 l -0.96174,0.455564 z m 5.72491,-6.889133 q -0.17716,-0.182225 -0.17716,-0.435316 0,-0.258152 0.17716,-0.440378 0.17717,-0.182225 0.43026,-0.182225 0.25309,0 0.43025,0.182225 0.17717,0.182226 0.17717,0.440378 0,0.253091 -0.17717,0.435316 -0.17716,0.182226 -0.43025,0.182226 -0.25309,0 -0.43026,-0.182226 z m -0.0759,6.889133 v -5.51738 l 0.96174,-0.455564 h 0.0506 v 5.51738 l -0.96174,0.455564 z m 3.7255,-1.78176 q 0,0.582109 0.31383,0.855447 0.31889,0.268276 0.77446,0.268276 0.45556,0 0.76939,-0.268276 0.3189,-0.273338 0.3189,-0.855447 v -2.409424 q 0,-0.582109 -0.3189,-0.850386 -0.31383,-0.273338 -0.76939,-0.273338 -0.45557,0 -0.77446,0.273338 -0.31383,0.268277 -0.31383,0.850386 z m 3.18894,-2.065221 v 1.721018 q 0,0.835199 -0.62767,1.452741 -0.58717,0.571985 -1.47298,0.571985 -0.66816,0 -1.08829,-0.430254 v 2.151272 l -0.96175,0.455563 h -0.0506 v -5.922325 q 0,-0.8352 0.62767,-1.452741 0.58717,-0.571985 1.47299,-0.571985 0.87569,0 1.47298,0.571985 0.62767,0.607418 0.62767,1.452741 z m 1.19459,1.721018 v -3.391417 l 0.96174,-0.455564 h 0.0506 v 4.191184 q 0,0.582109 0.31383,0.855447 0.3189,0.268276 0.77446,0.268276 0.45557,0 0.7694,-0.268276 0.31889,-0.273338 0.31889,-0.855447 v -3.73562 l 0.96175,-0.455564 h 0.0506 v 5.922325 q 0,0.8352 -0.62767,1.452742 -0.58717,0.571985 -1.47299,0.571985 h -1.55904 v -0.05062 l 0.24297,-0.506182 h 1.31607 q 0.45557,0 0.77446,-0.273338 0.31383,-0.268276 0.31383,-0.850385 v -0.825076 q -0.37457,0.430254 -1.08829,0.430254 -0.86557,0 -1.47299,-0.571985 -0.62766,-0.597294 -0.62766,-1.452741 z"
       id="text2-7"
       aria-label="minipy" />
    <path
       id="path11-8-7-6"
       style="fill:#ffffff;fill-opacity:1;stroke:#000000;stroke-width:0.211667;stroke-linecap:butt;stroke-linejoin:miter;stroke-dasharray:none;stroke-opacity:1"
       d="m -98.360044,29.916213 -1.740626,0.857344 -0.48214,-0.698529 c -0.0584,0.07412 -0.11579,0.151161 -0.17146,0.235373 0,0 -0.31428,0.703072 -0.61754,1.177821 -0.30327,0.474749 -1.00976,0.864032 -0.98073,1.091137 0,0 0.37266,1.226225 1.50336,1.226225 0.956736,-0.04832 2.084826,-0.829505 2.084826,-0.829505 0.166631,-0.106758 0.274993,0.868142 0.27908,1.294253 -1.29712,-0.0046 -2.333816,0.119716 -3.234806,1.213886 l 0.16767,0.239171 0.86873,-0.764967 1.031656,0.845956 1.43155,-1.078799 0.75389,0.661515 0.71941,-0.76465 1.14017,0.90385 0.1044,-0.210065 c -0.049,-0.05229 -0.10441,-0.109489 -0.17241,-0.173683 0.34621,-0.980219 0.28591,-1.764201 0.28472,-2.352794 -8.5e-4,-0.431027 -0.10325,-1.084276 -0.31383,-1.712158 l -0.23253,0.171785 -0.78394,-0.784897 -0.752,0.595395 z" />
    <path
       style="fill:#ffffff;fill-opacity:1;stroke:#000000;stroke-width:0.238125;stroke-linecap:butt;stroke-linejoin:miter;stroke-dasharray:none;stroke-opacity:1"
       d="m -102.32871,34.674196 c 0,0 -0.54934,1.348824 -0.2238,2.738201 0.32552,1.389378 1.52592,2.652349 3.886027,2.718438 2.936556,-0.114154 3.964007,-1.731604 4.121686,-3.111969 0.157679,-1.380366 -0.445908,-2.657092 -0.445908,-2.657092 l -0.610371,1.273722 -1.139356,-0.937267 -0.718888,0.793071 -0.753342,-0.686022 -1.430422,1.118607 -1.030846,-0.877185 -0.86808,0.793071 z"
       id="path3-2-8-1" />
    <path
       style="fill:#ffffff;fill-opacity:1;stroke:#000000;stroke-width:0.238125;stroke-linecap:butt;stroke-linejoin:miter;stroke-dasharray:none;stroke-opacity:1"
       d="m -103.07704,30.259681 1.14001,-0.69219 0.25609,0.516584 0.97447,-0.323378 0.63956,0.926293 1.74051,-0.857194 0.88696,1.143409 0.75225,-0.595235 0.78387,0.78471 0.24184,-0.178469 0.65256,1.033227 c 0.10319,-2.041485 -0.66254,-3.821288 -3.11603,-4.491961 -2.4429,-0.515947 -4.16963,1.07535 -4.95209,2.734204 z"
       id="path4-8-6-9" />
    <path
       style="fill:#000000;fill-opacity:1;stroke:none;stroke-width:0.0924375;stroke-linecap:butt;stroke-linejoin:miter;stroke-dasharray:none;stroke-opacity:1"
       d="m -99.290281,31.449321 c 0,0 -0.07996,-0.147147 -0.07035,-0.307089 0,0 0.01599,-0.246313 0.172737,-0.377466 0,0 0.297491,-0.239914 0.473427,-0.191931 0.179134,0.04478 0.284698,0.246312 0.332682,0.409454 0,0 0.05435,0.239914 -0.0065,0.374266 0,0 -0.04475,0.124755 -0.140745,0.182334 -0.118357,0.07997 -0.646229,0.102362 -0.761387,-0.08957 z"
       id="path8-27-4" />
    <path
       d="m -98.601562,30.335937 c -0.05437,-0.01483 -0.120635,-0.0085 -0.203125,0.01172 -0.08249,0.02025 -0.176351,0.05807 -0.269532,0.115235 -0.407177,0.249785 -0.383697,0.597951 -0.378898,0.683596 0.01463,0.175164 0.08008,0.347657 0.08008,0.347657 0.0417,0.110632 0.117618,0.121784 0.216797,0.156297 0.09027,0.03141 0.192003,0.04737 0.294922,0.05273 0.102919,0.0054 0.205256,-3.14e-4 0.292969,-0.01367 0.08771,-0.01336 0.159408,-0.03159 0.210937,-0.06641 0.13768,-0.0848 0.19192,-0.241739 0.19336,-0.246094 v -0.002 c 0.0446,-0.0995 0.04471,-0.220317 0.03711,-0.318359 -0.0076,-0.09864 -0.02539,-0.175782 -0.02539,-0.175782 v -0.002 -0.002 c -0.03085,-0.104901 -0.07993,-0.221308 -0.152343,-0.322266 -0.07242,-0.100957 -0.170006,-0.187033 -0.296875,-0.21875 z m -0.0293,0.109375 h 0.002 c 0.09309,0.02327 0.168351,0.08918 0.230469,0.175782 0.06127,0.08542 0.106617,0.190736 0.134765,0.285156 0,0 0.01647,0.07025 0.02344,0.160156 0.007,0.0899 0.0023,0.198547 -0.02734,0.263672 v 0.002 l -0.002,0.002 c 0,0 -0.05486,0.137253 -0.148438,0.19336 l -0.002,0.002 c -0.02114,0.01428 -0.08495,0.03678 -0.164062,0.04883 -0.07912,0.01205 -0.176518,0.01667 -0.271485,0.01172 -0.09497,-0.0049 -0.188041,-0.0204 -0.263672,-0.04687 -0.07454,-0.0261 -0.128574,-0.06216 -0.154296,-0.103516 0,0 -0.09067,-0.170119 -0.08008,-0.345703 0.02363,-0.267047 0.174186,-0.43473 0.337891,-0.535156 0.08207,-0.05034 0.167015,-0.08211 0.238281,-0.09961 0.07127,-0.0175 0.133097,-0.01732 0.146485,-0.01367 z"
       id="path8-7-6-5"
       style="stroke-width:1.05833;stroke-dasharray:none" />
    <path
       style="fill:#ffffff;fill-opacity:1;stroke:none;stroke-width:0.244573px;stroke-linecap:butt;stroke-linejoin:miter;stroke-opacity:1"
       d="m -99.152891,30.912463 c 0,0 0.05777,-0.02294 0.124919,-0.09651 0.06396,-0.05758 0.07672,-0.111961 0.07672,-0.111961 0.05121,-0.04478 0.201522,-0.01919 0.185531,0.105563 0,0 -0.03199,0.09597 -0.124754,0.14075 l -0.227275,0.06772 c -0.06757,0.02301 -0.119679,-0.06365 -0.03522,-0.105558 z"
       id="path10-13-0" />
    <path
       id="path6-2-2"
       style="stroke-width:1.19816"
       d="m -97.697478,31.759238 c -0.03972,0.004 -0.0709,0.03783 -0.0709,0.07864 0,0.04353 0.01263,0.0746 0.07685,0.09532 0.0017,5.84e-4 0.0037,7.38e-4 0.0054,0.0012 -0.135754,0.375966 -0.242097,0.45137 -1.109888,0.939501 l 0.0066,0.01251 -0.03396,0.01072 0.1263,0.290131 c 1.24313,-0.457377 1.645468,-0.853713 1.645468,-0.853713 l -1.062822,0.338387 c 0.18526,-0.171372 0.310252,-0.326627 0.381282,-0.453368 0.06726,-0.120013 0.0859,-0.219266 0.08877,-0.286558 0.02782,-0.01219 0.04502,-0.044 0.04587,-0.07328 0.002,-0.07668 -0.04765,-0.09952 -0.09115,-0.09949 -0.0027,-2e-6 -0.0051,-2.68e-4 -0.0077,0 z" />
    <ellipse
       style="fill:#000000;fill-opacity:1;stroke:none;stroke-width:0.192364;stroke-linecap:round;stroke-linejoin:round"
       id="path7-6-6-2"
       cx="-106.47778"
       cy="11.261056"
       rx="0.14351827"
       ry="0.11213105"
       transform="rotate(-11.678648)" />
    <ellipse
       style="fill:#000000;fill-opacity:1;stroke:none;stroke-width:0.216883;stroke-linecap:round;stroke-linejoin:round"
       id="path7-6-4-0-0"
       cx="-86.942261"
       cy="60.93047"
       rx="0.16181161"
       ry="0.12642366"
       transform="rotate(17.107499)" />
  </g>
</svg>
